<svg xmlns="http://www.w3.org/2000/svg" width="17" height="16" viewBox="0 0 17 16" fill="none">
  <path d="M0.5 1C0.5 0.447715 0.947715 0 1.5 0H3.5C4.05228 0 4.5 0.447715 4.5 1V3C4.5 3.55228 4.05228 4 3.5 4H1.5C0.947715 4 0.5 3.55228 0.5 3V1Z" fill="#090909"/>
  <path d="M0.5 7C0.5 6.44772 0.947715 6 1.5 6H3.5C4.05228 6 4.5 6.44772 4.5 7V9C4.5 9.55228 4.05228 10 3.5 10H1.5C0.947715 10 0.5 9.55228 0.5 9V7Z" fill="#090909"/>
  <path d="M0.5 13C0.5 12.4477 0.947715 12 1.5 12H3.5C4.05228 12 4.5 12.4477 4.5 13V15C4.5 15.5523 4.05228 16 3.5 16H1.5C0.947715 16 0.5 15.5523 0.5 15V13Z" fill="#090909"/>
  <path d="M6.5 1C6.5 0.447715 6.94772 0 7.5 0H9.5C10.0523 0 10.5 0.447715 10.5 1V3C10.5 3.55228 10.0523 4 9.5 4H7.5C6.94772 4 6.5 3.55228 6.5 3V1Z" fill="#090909"/>
  <path d="M6.5 7C6.5 6.44772 6.94772 6 7.5 6H9.5C10.0523 6 10.5 6.44772 10.5 7V9C10.5 9.55228 10.0523 10 9.5 10H7.5C6.94772 10 6.5 9.55228 6.5 9V7Z" fill="#090909"/>
  <path d="M6.5 13C6.5 12.4477 6.94772 12 7.5 12H9.5C10.0523 12 10.5 12.4477 10.5 13V15C10.5 15.5523 10.0523 16 9.5 16H7.5C6.94772 16 6.5 15.5523 6.5 15V13Z" fill="#090909"/>
  <path d="M12.5 1C12.5 0.447715 12.9477 0 13.5 0H15.5C16.0523 0 16.5 0.447715 16.5 1V3C16.5 3.55228 16.0523 4 15.5 4H13.5C12.9477 4 12.5 3.55228 12.5 3V1Z" fill="#090909"/>
  <path d="M12.5 7C12.5 6.44772 12.9477 6 13.5 6H15.5C16.0523 6 16.5 6.44772 16.5 7V9C16.5 9.55228 16.0523 10 15.5 10H13.5C12.9477 10 12.5 9.55228 12.5 9V7Z" fill="#090909"/>
  <path d="M12.5 13C12.5 12.4477 12.9477 12 13.5 12H15.5C16.0523 12 16.5 12.4477 16.5 13V15C16.5 15.5523 16.0523 16 15.5 16H13.5C12.9477 16 12.5 15.5523 12.5 15V13Z" fill="#090909"/>
</svg>