<svg xmlns="http://www.w3.org/2000/svg" width="17" height="16" viewBox="0 0 17 16" fill="none">
  <path d="M9.5 2.7335V13.2668C9.5 14.2668 9.92667 14.6668 10.9867 14.6668H13.68C14.74 14.6668 15.1667 14.2668 15.1667 13.2668V2.7335C15.1667 1.7335 14.74 1.3335 13.68 1.3335H10.9867C9.92667 1.3335 9.5 1.7335 9.5 2.7335Z" fill="#090909"/>
  <path d="M1.83331 2.7335V13.2668C1.83331 14.2668 2.25998 14.6668 3.31998 14.6668H6.01331C7.07331 14.6668 7.49998 14.2668 7.49998 13.2668V2.7335C7.49998 1.7335 7.07331 1.3335 6.01331 1.3335H3.31998C2.25998 1.3335 1.83331 1.7335 1.83331 2.7335Z" fill="#090909"/>
</svg>