<svg xmlns="http://www.w3.org/2000/svg" width="21" height="20" viewBox="0 0 21 20" fill="none">
  <g clip-path="url(#clip0_495_185)">
    <path opacity="0.1" d="M10.5 20C4.97715 20 0.5 15.5229 0.5 10C0.5 4.47715 4.97715 0 10.5 0C16.0229 0 20.5 4.47715 20.5 10C20.5 15.5229 16.0229 20 10.5 20Z" fill="#F7F8F9"/>
    <path d="M14.8751 10.1373L10.189 2.5V8.04375L14.2917 9.8768L10.189 8.04485V12.858L14.8751 10.1375L14.8753 10.1375L14.8752 10.1374L14.8753 10.1374L14.8751 10.1373ZM10.1878 8.04375V2.5L5.50226 10.1373L5.50216 10.1374L5.50221 10.1374L5.50216 10.1375L5.50231 10.1375L10.1878 12.858V8.04485L6.08561 9.8768L10.1878 8.04375ZM10.1878 13.7299V17.4968L5.49902 11.0099L10.1878 13.7299ZM10.189 13.7293V17.4968L14.8753 11.0099L10.189 13.7293Z" fill="#151517"/>
  </g>
  <defs>
    <clipPath id="clip0_495_185">
      <rect width="20" height="20" fill="white" transform="translate(0.5)"/>
    </clipPath>
  </defs>
</svg>