<svg xmlns="http://www.w3.org/2000/svg" width="20" height="20" viewBox="0 0 20 20" fill="none">
  <path d="M15.8335 18.9582C15.4918 18.9582 15.2085 18.6748 15.2085 18.3332V9.1665C15.2085 8.82484 15.4918 8.5415 15.8335 8.5415C16.1752 8.5415 16.4585 8.82484 16.4585 9.1665V18.3332C16.4585 18.6748 16.1752 18.9582 15.8335 18.9582Z" fill="#090909"/>
  <path d="M15.8335 6.45817C15.4918 6.45817 15.2085 6.17484 15.2085 5.83317V1.6665C15.2085 1.32484 15.4918 1.0415 15.8335 1.0415C16.1752 1.0415 16.4585 1.32484 16.4585 1.6665V5.83317C16.4585 6.17484 16.1752 6.45817 15.8335 6.45817Z" fill="#090909"/>
  <path d="M10 18.9582C9.65833 18.9582 9.375 18.6748 9.375 18.3332V14.1665C9.375 13.8248 9.65833 13.5415 10 13.5415C10.3417 13.5415 10.625 13.8248 10.625 14.1665V18.3332C10.625 18.6748 10.3417 18.9582 10 18.9582Z" fill="#090909"/>
  <path d="M10 11.4582C9.65833 11.4582 9.375 11.1748 9.375 10.8332V1.6665C9.375 1.32484 9.65833 1.0415 10 1.0415C10.3417 1.0415 10.625 1.32484 10.625 1.6665V10.8332C10.625 11.1748 10.3417 11.4582 10 11.4582Z" fill="#090909"/>
  <path d="M4.1665 18.9582C3.82484 18.9582 3.5415 18.6748 3.5415 18.3332V9.1665C3.5415 8.82484 3.82484 8.5415 4.1665 8.5415C4.50817 8.5415 4.7915 8.82484 4.7915 9.1665V18.3332C4.7915 18.6748 4.50817 18.9582 4.1665 18.9582Z" fill="#090909"/>
  <path d="M4.1665 6.45817C3.82484 6.45817 3.5415 6.17484 3.5415 5.83317V1.6665C3.5415 1.32484 3.82484 1.0415 4.1665 1.0415C4.50817 1.0415 4.7915 1.32484 4.7915 1.6665V5.83317C4.7915 6.17484 4.50817 6.45817 4.1665 6.45817Z" fill="#090909"/>
  <path d="M5.83333 9.7915H2.5C2.15833 9.7915 1.875 9.50817 1.875 9.1665C1.875 8.82484 2.15833 8.5415 2.5 8.5415H5.83333C6.175 8.5415 6.45833 8.82484 6.45833 9.1665C6.45833 9.50817 6.175 9.7915 5.83333 9.7915Z" fill="#090909"/>
  <path d="M17.4998 9.7915H14.1665C13.8248 9.7915 13.5415 9.50817 13.5415 9.1665C13.5415 8.82484 13.8248 8.5415 14.1665 8.5415H17.4998C17.8415 8.5415 18.1248 8.82484 18.1248 9.1665C18.1248 9.50817 17.8415 9.7915 17.4998 9.7915Z" fill="#090909"/>
  <path d="M11.6668 11.4585H8.3335C7.99183 11.4585 7.7085 11.1752 7.7085 10.8335C7.7085 10.4918 7.99183 10.2085 8.3335 10.2085H11.6668C12.0085 10.2085 12.2918 10.4918 12.2918 10.8335C12.2918 11.1752 12.0085 11.4585 11.6668 11.4585Z" fill="#090909"/>
</svg>