<svg width="164" height="56" viewBox="0 0 164 56" fill="none" xmlns="http://www.w3.org/2000/svg">
<rect x="1" y="0.5" width="162" height="55" rx="27.5" stroke="#DCF06B" stroke-linecap="round"/>
<path d="M50.7094 30.4688C50.7094 33.6146 49.2198 35.1875 46.2406 35.1875C43.3865 35.1875 41.9594 33.6745 41.9594 30.6484V23.7969H43.8187V30.2656C43.8187 32.4635 44.6729 33.5625 46.3812 33.5625C48.0271 33.5625 48.85 32.5026 48.85 30.3828V23.7969H50.7094V30.4688ZM55.0628 33.8203H55.0316V38.6797H53.2191V27H55.0316V28.4062H55.0628C55.6826 27.3438 56.5889 26.8125 57.7816 26.8125C58.7972 26.8125 59.5889 27.1693 60.1566 27.8828C60.7243 28.5964 61.0081 29.5547 61.0081 30.7578C61.0081 32.0911 60.6878 33.1589 60.0472 33.9609C59.4066 34.763 58.5316 35.1641 57.4222 35.1641C56.4014 35.1641 55.6149 34.7161 55.0628 33.8203ZM55.0159 30.6641V31.6562C55.0159 32.2396 55.2008 32.7344 55.5706 33.1406C55.9456 33.5469 56.4196 33.75 56.9925 33.75C57.6644 33.75 58.1904 33.4896 58.5706 32.9688C58.956 32.4427 59.1487 31.7109 59.1487 30.7734C59.1487 29.987 58.9691 29.3724 58.6097 28.9297C58.2555 28.4818 57.7737 28.2578 57.1644 28.2578C56.5185 28.2578 55.9977 28.487 55.6019 28.9453C55.2112 29.4036 55.0159 29.9766 55.0159 30.6641ZM64.76 35H62.9397V23.1562H64.76V35ZM70.7541 35.1875C69.5197 35.1875 68.5327 34.8151 67.7931 34.0703C67.0587 33.3203 66.6916 32.3281 66.6916 31.0938C66.6916 29.75 67.0744 28.7005 67.84 27.9453C68.6108 27.1901 69.6473 26.8125 70.9494 26.8125C72.1994 26.8125 73.1733 27.1797 73.8712 27.9141C74.5692 28.6484 74.9181 29.6667 74.9181 30.9688C74.9181 32.2448 74.5405 33.2682 73.7853 34.0391C73.0353 34.8047 72.0249 35.1875 70.7541 35.1875ZM70.84 28.2578C70.1317 28.2578 69.5718 28.5052 69.1603 29C68.7489 29.4948 68.5431 30.1771 68.5431 31.0469C68.5431 31.8854 68.7515 32.5469 69.1681 33.0312C69.5848 33.5104 70.1421 33.75 70.84 33.75C71.5535 33.75 72.1004 33.513 72.4806 33.0391C72.866 32.5651 73.0587 31.8906 73.0587 31.0156C73.0587 30.1354 72.866 29.4557 72.4806 28.9766C72.1004 28.4974 71.5535 28.2578 70.84 28.2578ZM82.8028 35H81.045V33.75H81.0137C80.4617 34.7083 79.6518 35.1875 78.5841 35.1875C77.7976 35.1875 77.1804 34.974 76.7325 34.5469C76.2898 34.1198 76.0684 33.5547 76.0684 32.8516C76.0684 31.3411 76.9382 30.4609 78.6778 30.2109L81.0528 29.875C81.0528 28.7344 80.5111 28.1641 79.4278 28.1641C78.4747 28.1641 77.6153 28.4922 76.8497 29.1484V27.5625C77.6934 27.0625 78.6674 26.8125 79.7716 26.8125C81.7924 26.8125 82.8028 27.8073 82.8028 29.7969V35ZM81.0528 31.0703L79.3731 31.3047C78.8523 31.3724 78.4591 31.5 78.1934 31.6875C77.933 31.8698 77.8028 32.1927 77.8028 32.6562C77.8028 32.9948 77.9226 33.2734 78.1622 33.4922C78.407 33.7057 78.7325 33.8125 79.1387 33.8125C79.6908 33.8125 80.1466 33.6198 80.5059 33.2344C80.8705 32.8438 81.0528 32.3542 81.0528 31.7656V31.0703ZM92.375 35H90.5625V33.6406H90.5312C89.9479 34.6719 89.0495 35.1875 87.8359 35.1875C86.8516 35.1875 86.0625 34.8307 85.4688 34.1172C84.8802 33.3984 84.5859 32.4219 84.5859 31.1875C84.5859 29.8646 84.9115 28.8047 85.5625 28.0078C86.2188 27.2109 87.0911 26.8125 88.1797 26.8125C89.2578 26.8125 90.0417 27.2448 90.5312 28.1094H90.5625V23.1562H92.375V35ZM90.5859 31.3438V30.2969C90.5859 29.7292 90.401 29.2474 90.0312 28.8516C89.6615 28.4557 89.1901 28.2578 88.6172 28.2578C87.9401 28.2578 87.4062 28.5104 87.0156 29.0156C86.6302 29.5208 86.4375 30.2214 86.4375 31.1172C86.4375 31.9297 86.6224 32.5729 86.9922 33.0469C87.3672 33.5156 87.8698 33.75 88.5 33.75C89.1198 33.75 89.6224 33.5234 90.0078 33.0703C90.3932 32.612 90.5859 32.0365 90.5859 31.3438ZM105.558 25.375H101.371V28.7422H105.23V30.3125H101.371V35H99.5116V23.7969H105.558V25.375ZM108.349 25.3203C108.052 25.3203 107.797 25.224 107.584 25.0312C107.375 24.8385 107.271 24.5938 107.271 24.2969C107.271 24 107.375 23.7526 107.584 23.5547C107.797 23.3568 108.052 23.2578 108.349 23.2578C108.657 23.2578 108.917 23.3568 109.131 23.5547C109.344 23.7526 109.451 24 109.451 24.2969C109.451 24.5781 109.344 24.8203 109.131 25.0234C108.917 25.2214 108.657 25.3203 108.349 25.3203ZM109.248 35H107.435V27H109.248V35ZM113.523 35H111.703V23.1562H113.523V35ZM122.744 31.4922H117.291C117.311 32.2318 117.538 32.8021 117.97 33.2031C118.408 33.6042 119.007 33.8047 119.767 33.8047C120.621 33.8047 121.405 33.5495 122.119 33.0391V34.5C121.39 34.9583 120.426 35.1875 119.228 35.1875C118.051 35.1875 117.127 34.8255 116.455 34.1016C115.788 33.3724 115.455 32.349 115.455 31.0312C115.455 29.7865 115.822 28.7734 116.556 27.9922C117.296 27.2057 118.213 26.8125 119.306 26.8125C120.4 26.8125 121.246 27.1641 121.845 27.8672C122.444 28.5703 122.744 29.5469 122.744 30.7969V31.4922ZM120.994 30.2109C120.989 29.5599 120.835 29.0547 120.533 28.6953C120.231 28.3307 119.814 28.1484 119.283 28.1484C118.762 28.1484 118.319 28.3385 117.955 28.7188C117.595 29.099 117.374 29.5964 117.291 30.2109H120.994Z" fill="#171717"/>
</svg>
