<svg xmlns="http://www.w3.org/2000/svg" width="20" height="16" viewBox="0 0 20 16" fill="none">
  <g clip-path="url(#clip0_95_767)">
    <path d="M16.6397 1.35508C18.8055 4.83901 19.8751 8.76879 19.4753 13.2929C19.4736 13.312 19.4645 13.3296 19.4501 13.3411C17.81 14.6587 16.221 15.4584 14.6542 15.9887C14.642 15.9927 14.6289 15.9925 14.6169 15.9881C14.6048 15.9836 14.5943 15.9751 14.5868 15.9638C14.2249 15.4128 13.896 14.8318 13.6079 14.2218C13.5913 14.1859 13.6064 14.1426 13.6405 14.1284C14.1628 13.9131 14.6595 13.6551 15.1372 13.3495C15.1748 13.3254 15.1772 13.2664 15.1425 13.2381C15.0411 13.1557 14.9406 13.0692 14.8445 12.9826C14.8265 12.9666 14.8023 12.9635 14.782 12.9742C11.6803 14.5413 8.28265 14.5413 5.14434 12.9742C5.12397 12.9642 5.09976 12.9677 5.08226 12.9834C4.98637 13.0699 4.88569 13.1557 4.78525 13.2381C4.7505 13.2664 4.75337 13.3254 4.79125 13.3495C5.26899 13.6493 5.76568 13.9131 6.28729 14.1295C6.32109 14.1437 6.33715 14.1859 6.32037 14.2218C6.03847 14.8326 5.70958 15.4135 5.34091 15.9646C5.32485 15.9869 5.29848 15.9971 5.27355 15.9887C3.71422 15.4584 2.12517 14.6587 0.485063 13.3411C0.471399 13.3296 0.461571 13.3112 0.460133 13.2921C0.125974 9.37882 0.806996 5.41652 3.29305 1.35429C3.29904 1.34354 3.30815 1.33515 3.3187 1.33017C4.54195 0.71594 5.85245 0.264057 7.22217 0.0059884C7.2471 0.00179215 7.27203 0.0143809 7.28497 0.0385093C7.45421 0.366341 7.64766 0.786752 7.77854 1.13032C9.22232 0.889035 10.6886 0.889035 12.1626 1.13032C12.2935 0.794095 12.4802 0.366341 12.6488 0.0385093C12.6548 0.0265394 12.6641 0.0169499 12.6753 0.0111096C12.6866 0.00526932 12.6993 0.00347696 12.7116 0.0059884C14.082 0.264844 15.3925 0.716727 16.6148 1.33017C16.6256 1.33515 16.6345 1.34354 16.6397 1.35508ZM8.51254 8.79554C8.52764 7.63869 7.75672 6.68142 6.78901 6.68142C5.8292 6.68142 5.06572 7.6303 5.06572 8.79554C5.06572 9.96053 5.8443 10.9094 6.78901 10.9094C7.74905 10.9094 8.51254 9.96053 8.51254 8.79554ZM14.8846 8.79554C14.8997 7.63869 14.1287 6.68142 13.1613 6.68142C12.2012 6.68142 11.4377 7.6303 11.4377 8.79554C11.4377 9.96053 12.2163 10.9094 13.1613 10.9094C14.1287 10.9094 14.8846 9.96053 14.8846 8.79554Z" fill="#090909"/>
  </g>
  <defs>
    <clipPath id="clip0_95_767">
      <rect width="20" height="16" fill="white"/>
    </clipPath>
  </defs>
</svg>