<svg width="65" height="64" viewBox="0 0 65 64" fill="none" xmlns="http://www.w3.org/2000/svg">
<path d="M40.4997 60.6673H24.4997C10.0197 60.6673 3.83301 54.4807 3.83301 40.0007V24.0007C3.83301 9.52065 10.0197 3.33398 24.4997 3.33398H40.4997C54.9797 3.33398 61.1663 9.52065 61.1663 24.0007V40.0007C61.1663 54.4807 54.9797 60.6673 40.4997 60.6673ZM24.4997 7.33398C12.2063 7.33398 7.83301 11.7073 7.83301 24.0007V40.0007C7.83301 52.294 12.2063 56.6673 24.4997 56.6673H40.4997C52.793 56.6673 57.1663 52.294 57.1663 40.0007V24.0007C57.1663 11.7073 52.793 7.33398 40.4997 7.33398H24.4997Z" fill="#8E8E8E"/>
<path d="M24.5003 28.6667C20.447 28.6667 17.167 25.3867 17.167 21.3333C17.167 17.28 20.447 14 24.5003 14C28.5537 14 31.8337 17.28 31.8337 21.3333C31.8337 25.3867 28.5537 28.6667 24.5003 28.6667ZM24.5003 18C22.6603 18 21.167 19.4933 21.167 21.3333C21.167 23.1733 22.6603 24.6667 24.5003 24.6667C26.3403 24.6667 27.8337 23.1733 27.8337 21.3333C27.8337 19.4933 26.3403 18 24.5003 18Z" fill="#8E8E8E"/>
<path d="M7.61972 52.5341C6.97972 52.5341 6.33972 52.2141 5.96638 51.6541C5.35305 50.7475 5.59305 49.4941 6.52638 48.8808L19.673 40.0541C22.5531 38.1075 26.5264 38.3475 29.1397 40.5608L30.0197 41.3341C31.3531 42.4808 33.6197 42.4808 34.9264 41.3341L46.0197 31.8141C48.8464 29.3875 53.2997 29.3875 56.1531 31.8141L60.4997 35.5475C61.3264 36.2675 61.433 37.5208 60.7131 38.3741C59.993 39.2008 58.7397 39.3075 57.8864 38.5875L53.5397 34.8541C52.2064 33.7075 49.9397 33.7075 48.6064 34.8541L37.5131 44.3741C34.6864 46.8008 30.2331 46.8008 27.3797 44.3741L26.4997 43.6008C25.2731 42.5608 23.2464 42.4541 21.8864 43.3875L8.73972 52.2141C8.39305 52.4275 7.99305 52.5341 7.61972 52.5341Z" fill="#8E8E8E"/>
</svg>
