<svg xmlns="http://www.w3.org/2000/svg" width="20" height="18" viewBox="0 0 20 18" fill="none">
  <path d="M18.5441 1.71387L19.3785 1.65855C19.3562 1.32313 19.1353 1.03364 18.8176 0.923697C18.5 0.813751 18.1473 0.904729 17.9225 1.15464L18.5441 1.71387ZM18.1577 5.33702C18.1577 4.87522 17.7833 4.50086 17.3215 4.50086C16.8597 4.50086 16.4854 4.87522 16.4854 5.33702H18.1577ZM9.99916 6.42815V7.26431H10.8353V6.42815H9.99916ZM2.65033 1.71387L3.4334 1.42067C3.31673 1.10906 3.0264 0.896278 2.69412 0.878856C2.36183 0.861434 2.05084 1.04268 1.90222 1.34039L2.65033 1.71387ZM7.42773 12.8567L8.01945 13.4475C8.22407 13.2426 8.30808 12.9463 8.24149 12.6645C8.17491 12.3826 7.96722 12.1553 7.69252 12.0636L7.42773 12.8567ZM1.42773 15.1833V14.3471C1.05938 14.3471 0.73441 14.5882 0.62754 14.9407C0.520671 15.2932 0.657075 15.6741 0.963421 15.8787L1.42773 15.1833ZM16.3862 2.90576L15.766 3.46656L16.0672 3.79976L16.5114 3.73249L16.3862 2.90576ZM17.7098 1.76918C17.7722 2.71034 17.7118 3.25271 17.5725 3.6454C17.4394 4.02061 17.2059 4.34005 16.743 4.78361L17.9 5.99106C18.4474 5.46653 18.8904 4.93241 19.1486 4.2045C19.4006 3.49407 19.4464 2.68375 19.3785 1.65855L17.7098 1.76918ZM18.1577 6.22916V5.38734H16.4854V6.22916H18.1577ZM18.1577 5.38734V5.33702H16.4854V5.38734H18.1577ZM9.163 5.57101V6.42815H10.8353V5.57101H9.163ZM13.704 0.877709C11.1462 0.877709 9.163 3.09635 9.163 5.57101H10.8353C10.8353 3.93248 12.1549 2.55003 13.704 2.55003V0.877709ZM16.4854 6.22916C16.4854 11.4053 12.1339 15.8777 6.99916 15.8777V17.55C13.0901 17.55 18.1577 12.296 18.1577 6.22916H16.4854ZM1.86727 2.00706C2.56511 3.87086 5.1572 7.26431 9.99916 7.26431V5.59199C6.03841 5.59199 3.95816 2.82218 3.4334 1.42067L1.86727 2.00706ZM1.90222 1.34039C0.600855 3.94714 0.358409 6.5324 1.28744 8.75564C2.21648 10.9789 4.24877 12.677 7.16295 13.6499L7.69252 12.0636C5.105 11.1998 3.52598 9.77533 2.83045 8.11087C2.13491 6.44636 2.25461 4.37855 3.39845 2.08735L1.90222 1.34039ZM6.83602 12.2659C6.14002 12.963 4.09168 14.3471 1.42773 14.3471V16.0194C4.63227 16.0194 7.08534 14.3831 8.01945 13.4475L6.83602 12.2659ZM17.0064 2.34496C16.1928 1.44517 15.0141 0.877709 13.704 0.877709V2.55003C14.5214 2.55003 15.2557 2.90227 15.766 3.46656L17.0064 2.34496ZM16.5114 3.73249C17.4959 3.58339 18.4508 3.06781 19.1658 2.2731L17.9225 1.15464C17.4564 1.67276 16.8478 1.99016 16.261 2.07903L16.5114 3.73249ZM0.963421 15.8787C2.97835 17.224 4.91988 17.55 6.99916 17.55V15.8777C5.12725 15.8777 3.54492 15.5915 1.89205 14.4879L0.963421 15.8787Z" fill="#171717"/>
</svg>